<svg xmlns="http://www.w3.org/2000/svg" xml:space="preserve" width="1700mm" height="1150mm" version="1.1" style="shape-rendering:geometricPrecision; text-rendering:geometricPrecision; image-rendering:optimizeQuality; fill-rule:evenodd; clip-rule:evenodd"
viewBox="0 0 17000 5000"
 xmlns:xlink="http://www.w3.org/1999/xlink">
 <defs>
  <style type="text/css">
   <![CDATA[
    .fil6 {fill:#68AC58}
    .fil7 {fill:#E25A5E}
    .fil2 {fill:#F18A30}
    .fil5 {fill:#FEFEFE}
    .fil4 {fill:#FFD76C}
    .fil8 {fill:#464545;fill-rule:nonzero}
    .fil0 {fill:#F18A30;fill-rule:nonzero}
    .fil3 {fill:#FEFEFE;fill-rule:nonzero}
    .fil1 {fill:#FFD76C;fill-rule:nonzero}
   ]]>
  </style>
 </defs>
   <path class="fil0" d="M7253.47 4000.98l0 -103 260 0 0 103 -260 0zm312 104l51 -51 0 -208 -51 -52 -312 0 0 -105 338 0 0 -104 -442 0 0 521 416 0 0 -1zm575 0l0 -104 -338 0 0 -103 312 0 0 -104 -312 0 0 -105 338 0 0 -104 -442 0 0 521 442 0 0 -1zm186 -260l0 -157 260 0 0 157 -260 0zm0 260l0 -156 312 0 51 -52 0 -261 -51 -53 -416 0 0 521 104 0 0 1zm549 0l260 -348 0 348 103 0 0 -521 -103 0 -260 347 0 -347 -104 0 0 521 104 0zm445 104l104 -104 0 -104 -104 0 0 208zm748 -104l0 -521 -104 0 0 209 -234 0 0 -209 -104 0 0 261 51 52 287 0 0 208 104 0zm353 0l0 -417 181 0 0 -104 -467 0 0 104 182 0 0 417 104 0zm352 -104l0 -313 260 0 0 313 -260 0zm312 104l51 -51 0 -417 -51 -53 -365 0 -51 53 0 417 51 51 365 0zm483 0l0 -417 260 0 0 417 103 0 0 -521 -467 0 0 521 104 0zm557 -104l0 -313 260 0 0 313 -260 0zm312 104l51 -51 0 -417 -51 -53 -365 0 -51 53 0 417 51 51 365 0zm505 -104l0 -208 104 -104 104 0 0 313 -208 0 0 -1zm365 104l0 -104 -53 0 0 -417 -260 0 -156 156 0 260 -51 0 0 104c173,0 347,0 520,0l0 1zm96 0l260 0 156 -156 0 -365 -103 0 0 209 -260 0 0 -209 -104 0 0 254 59 59 305 0 -104 103 -208 0 0 104 -1 1zm1121 0l0 -521 -103 0 0 417 -156 0 0 -417 -104 0 0 417 -156 0 0 -417 -104 0 0 521 624 0 -1 0zm531 0l0 -104 -338 0 0 -103 312 0 0 -104 -312 0 0 -105 338 0 0 -104 -442 0 0 521 442 0 0 -1z"/>
   <polygon class="fil0" points="6444.47,2955.98 6310.47,2955.98 6044.47,2690.98 6044.47,1778.98 5777.47,1778.98 5777.47,2824.98 6176.47,3223.98 6577.47,3223.98 6977.47,2824.98 6977.47,1778.98 6711.47,1778.98 6711.47,2690.98 "/>
   <path class="fil1" d="M7148.47 1788.98l0 1445 1063 0 0 -267 -796 0 0 -1178 -267 0zm1469 778l0 -242 266 -269 401 0 0 511 -667 0zm0 667l0 -399 667 0 0 399 266 0 0 -1445 -800 0 -399 403 0 1042 267 0 -1 0zm1771 -267l-134 0 -266 -265 0 -912 -267 0 0 1046 399 399 401 0 399 -399 0 -1046 -266 0 0 912 -267 265 1 0zm953 -399l0 -242 266 -269 401 0 0 511 -667 0zm0 667l0 -399 667 0 0 399 266 0 0 -1445 -800 0 -399 403 0 1042 267 0 -1 0zm2191 0l132 -132 0 -591 -132 -134 -800 0 0 -321 667 0 0 134 266 0 0 -266 -132 -136 -936 0 -132 136 0 627 132 96 802 0 0 319 -667 0 0 -132 -267 0 0 267 132 132 936 0 -1 1zm590 0l0 -587 667 0 0 587 266 0 0 -1445 -266 0 0 591 -667 0 0 -591 -267 0 0 1445 267 0zm2258 0l0 -267 -867 0 0 -319 800 0 0 -267 -800 0 0 -323 867 0 0 -267 -1135 0 0 1445 1135 0 0 -2z"/>
   <path class="fil2" d="M1565.47 4472.63c1073,0 1666,0 2738,0l598 -598c0,-1135 0,-1603 0,-2739l-598 -598c-1077,0 -1662,0 -2738,0l-598 598c0,1135 0,1603 0,2739l598 598z"/>
   <path class="fil3" d="M1594.47 4403.63l2681 0 558 -558 0 -2681 -558 -558 -2681 0 -558 558 0 2681 558 558zm2710 139l-2738 0c-18,0 -35,-7 -49,-20l-598 -598c-13,-13 -20,-30 -20,-49l0 -2739c0,-18 7,-36 20,-49l598 -598c13,-13 30,-20 49,-20l2738 0c18,0 36,7 49,20l598 598c13,13 20,30 20,49l0 2739c0,18 -7,36 -20,49l-598 598c-13,13 -30,20 -49,20z"/>
   <polygon class="fil4" points="687.47,1453.63 1715.47,1453.63 1715.47,2480.63 687.47,2480.63 "/>
   <polygon class="fil5" points="1715.47,1453.63 3448.47,3186.63 3448.47,4214.63 2421.47,4214.63 687.47,2480.63 1715.47,2480.63 "/>
   <path class="fil4" d="M1747.47 1742.63l1519 1520 0 883 -63 69 -803 -12 -1567 -1576 856 -5c92,0 54,-30 54,-122l4 -757z"/>
   <polygon class="fil5" points="3070.47,4176.63 3056.47,3332.63 2217.47,2508.63 728.47,2504.63 967.47,2662.63 2153.47,2662.63 2904.47,3412.63 2904.47,4176.63 "/>
   <path class="fil6" d="M967.47 1732.63c249,0 499,0 748,0 0,249 0,499 0,748 -249,0 -499,0 -748,0 0,-249 0,-499 0,-748z"/>
   <polygon class="fil7" points="1246.47,2012.63 1715.47,2012.63 1715.47,2480.63 1246.47,2480.63 "/>
   <path class="fil8" d="M1784.47 1620.63l1595 1595 0 756 139 3 0 -788c0,-18 -7,-35 -20,-49l-1734 -1733c-13,-13 -30,-20 -49,-20l-1028 0c-38,0 -69,31 -69,69l0 1026c0,18 6,37 20,51l1734 1734c13,13 30,20 49,20l0 -167 -1566 -1566 1345 0 816 816 0 598 139 3 0 -630c0,-18 -7,-36 -20,-49l-857 -857c-13,-13 -30,-20 -49,-20l-444 0 0 -791 -1 -1zm-1028 -98l889 0 0 141 -679 0c-38,0 -69,31 -69,69l0 679 -141 0 0 -889zm889 421l-399 0c-38,0 -69,31 -69,69l0 399 -141 0 0 -609 609 0 0 141zm-330 468l0 -330 330 0 0 330 -330 0z"/>
   <polygon class="fil2" points="2207.47,3429.63 2207.47,3517.63 2031.47,3517.63 2031.47,3341.63 2119.47,3341.63 2119.47,3429.63 "/>
   <polygon class="fil2" points="1568.47,2732.63 1668.47,2732.63 1668.47,2932.63 1469.47,2932.63 1469.47,2832.63 1568.47,2832.63 "/>
   <polygon class="fil2" points="2099.47,2114.63 1944.47,2114.63 1944.47,2269.63 2099.47,2269.63 "/>
   <polygon class="fil4" points="2934.47,2091.63 2181.47,1338.63 2181.47,904.63 2615.47,904.63 2934.47,1223.63 3254.47,904.63 3688.47,904.63 3688.47,1338.63 "/>
   <polygon class="fil5" points="2181.47,904.63 2935.47,1657.63 3665.47,927.63 3230.47,927.63 2934.47,1223.63 2615.47,904.63 "/>
   <path class="fil8" d="M2885.47 2140.63l-715 -715c-15,-15 -22,-35 -20,-55l0 -428c0,-38 31,-69 69,-69l0 0 434 0c19,0 37,8 49,20l232 232 252 -252c14,-14 31,-20 49,-20l434 0c38,0 69,31 69,69l0 6 0 428c0,19 -8,36 -20,49l0 0 -735 735c-27,27 -71,27 -98,0zm-597 -793l646 646 666 -666 0 -336 -336 0 -281 281c-27,27 -71,27 -98,0l-260 -260 -336 0 0 336 -1 -1z"/>
   <polygon class="fil2" points="3124.47,3268.63 3236.47,3268.63 3236.47,3380.63 3124.47,3380.63 "/>
   <polygon class="fil4" points="5182.47,1453.63 4154.47,1453.63 4154.47,2480.63 5182.47,2480.63 "/>
   <polygon class="fil5" points="4154.47,1453.63 2421.47,3186.63 2421.47,4214.63 3448.47,4214.63 5182.47,2480.63 4154.47,2480.63 "/>
   <path class="fil4" d="M4122.47 1742.63l-1520 1520 0 883 63 69 803 -12 1567 -1576 -856 -5c-92,0 -54,-30 -54,-122l-4 -757 1 0z"/>
   <polygon class="fil5" points="2799.47,4176.63 2813.47,3332.63 3652.47,2508.63 5141.47,2504.63 4902.47,2662.63 3716.47,2662.63 2965.47,3412.63 2965.47,4176.63 "/>
   <path class="fil6" d="M4902.47 1732.63c-249,0 -499,0 -748,0 0,249 0,499 0,748 249,0 499,0 748,0 0,-249 0,-499 0,-748z"/>
   <polygon class="fil7" points="4622.47,2012.63 4154.47,2012.63 4154.47,2480.63 4622.47,2480.63 "/>
   <polygon class="fil2" points="3143.47,3268.63 3255.47,3268.63 3255.47,3380.63 3143.47,3380.63 "/>
   <polygon class="fil2" points="3782.47,3347.63 3782.47,3556.63 3573.47,3556.63 3573.47,3452.63 3678.47,3452.63 3678.47,3347.63 "/>
   <polygon class="fil2" points="3573.47,2875.63 3748.47,2875.63 3748.47,3051.63 3573.47,3051.63 "/>
   <polygon class="fil2" points="4028.47,3156.63 4140.47,3156.63 4140.47,3268.63 4028.47,3268.63 "/>
   <polygon class="fil2" points="4202.47,2746.63 4290.47,2746.63 4290.47,2833.63 4377.47,2833.63 4377.47,2921.63 4202.47,2921.63 "/>
   <polygon class="fil2" points="3771.47,2123.63 3907.47,2123.63 3907.47,2259.63 3771.47,2259.63 "/>
   <polygon class="fil2" points="3123.47,3692.63 3292.47,3692.63 3292.47,3862.63 3123.47,3862.63 "/>
   <path class="fil8" d="M4085.47 1620.63l-1595 1595 0 930 224 0 0 -807c0,-18 7,-36 20,-49l857 -857c13,-13 30,-20 49,-20l444 0 0 -791 1 -1zm1028 -98l-889 0 0 141 679 0c38,0 69,31 69,69l0 679 141 0 0 -889zm-889 421l399 0c38,0 69,31 69,69l0 399 141 0 0 -609 -609 0 0 141zm330 468l0 -330 -330 0 0 330 330 0zm-399 -1028l1028 0c38,0 69,31 69,69l0 1026c0,18 -6,37 -20,51l-1733 1734c-13,13 -30,20 -49,20l-1028 0c-38,0 -69,-31 -69,-69l0 -1028c0,-18 7,-35 20,-49l1734 -1733c13,-13 30,-20 49,-20l-1 -1zm-1301 2761l567 0 1595 -1595 -1345 0 -816 816 0 779 -1 0z"/>
   <polygon class="fil2" points="1862.47,3135.63 1750.47,3135.63 1750.47,3247.63 1862.47,3247.63 "/>
   <polygon class="fil2" points="1993.47,2781.63 2168.47,2781.63 2168.47,2956.63 1993.47,2956.63 "/>
</svg>